<?xml version="1.0" standalone="no"?>
<!DOCTYPE svg PUBLIC "-//W3C//DTD SVG 20010904//EN"
 "http://www.w3.org/TR/2001/REC-SVG-20010904/DTD/svg10.dtd">
<svg version="1.0" xmlns="http://www.w3.org/2000/svg"
 width="1280.000000pt" height="640.000000pt" viewBox="0 0 1280.000000 640.000000"
 preserveAspectRatio="xMidYMid meet">
<metadata>
Created by potrace 1.15, written by Peter Selinger 2001-2017
</metadata>
<g transform="translate(0.000000,640.000000) scale(0.100000,-0.100000)"
fill="#fcdb5a" stroke="none">
<path d="M7920 5379 c-719 -20 -1510 -103 -2735 -289 -155 -23 -371 -47 -535
-60 -410 -31 -875 -75 -2055 -195 -667 -68 -635 -64 -635 -81 0 -8 10 -14 23
-14 20 0 375 36 1042 105 539 56 1393 136 1434 134 14 -1 -37 -12 -114 -25
-77 -14 -318 -56 -535 -94 -478 -84 -899 -139 -1200 -155 -99 -5 -884 -57
-1088 -71 -88 -7 -115 -16 -96 -34 5 -4 59 -4 119 1 302 24 999 68 1003 64 3
-3 -1 -5 -9 -5 -8 0 -169 -16 -358 -35 -188 -19 -349 -35 -358 -35 -8 0 -13
-7 -11 -17 2 -13 11 -17 33 -15 17 1 181 18 364 37 184 19 336 33 338 32 1 -2
-129 -29 -290 -61 -251 -49 -686 -138 -949 -193 -50 -11 -78 -21 -78 -30 0
-19 17 -17 256 33 300 62 1057 214 1291 258 172 32 551 82 560 73 2 -2 -45
-12 -104 -21 -509 -82 -1203 -226 -1483 -307 -124 -36 -132 -40 -121 -58 7
-10 24 -8 89 13 253 80 848 204 1532 320 633 108 725 119 1325 166 259 20 496
42 885 80 783 77 1472 140 1900 175 269 21 764 55 767 52 1 -2 -129 -41 -290
-86 -452 -129 -919 -267 -1152 -341 -49 -16 -164 -52 -255 -80 -426 -133
-1150 -377 -1595 -538 -137 -50 -353 -123 -480 -162 -231 -71 -1237 -404
-1565 -518 -96 -34 -258 -86 -360 -116 -311 -92 -796 -232 -975 -282 -93 -26
-249 -69 -345 -96 -96 -26 -227 -62 -290 -79 -63 -18 -146 -40 -185 -51 -220
-60 -378 -98 -440 -108 -126 -19 -175 -32 -175 -48 0 -17 86 -11 250 18 58 10
175 31 260 45 85 15 238 42 340 60 102 19 201 36 220 40 l35 5 -30 -13 c-16
-8 -105 -42 -197 -77 -118 -45 -165 -67 -161 -77 7 -19 9 -18 140 33 290 113
492 186 550 198 35 7 61 11 59 8 -4 -3 -246 -96 -600 -230 -61 -23 -88 -44
-73 -58 2 -3 94 29 203 71 623 239 726 275 918 320 1005 232 1817 476 2696
808 251 95 587 222 810 307 228 86 904 339 1055 395 83 31 222 75 438 139 48
15 95 29 105 32 9 3 0 -5 -21 -19 -43 -27 -41 -30 38 -70 110 -54 196 -79 260
-74 66 5 127 31 162 69 l23 24 -28 26 c-40 39 -143 108 -159 108 -26 0 -3 18
29 22 22 4 53 -5 102 -28 104 -47 190 -74 238 -74 64 1 188 63 188 95 0 7 -22
31 -50 53 -38 30 -46 41 -34 46 29 11 56 6 150 -29 118 -44 187 -47 261 -10
28 14 58 34 68 45 18 20 18 21 -10 50 l-29 30 40 0 c22 0 73 -11 112 -25 80
-28 129 -31 185 -11 60 22 119 67 114 87 -4 15 4 19 47 24 30 4 63 2 81 -5 39
-15 131 -14 170 2 16 6 47 23 69 37 36 24 47 25 180 26 123 2 147 5 191 24 45
20 59 22 148 16 53 -4 99 -10 101 -14 3 -4 -75 -19 -172 -35 -756 -119 -1414
-294 -2212 -589 -96 -36 -184 -68 -195 -72 -14 -5 -11 1 10 18 l30 25 -20 22
c-31 34 -136 106 -176 120 -30 11 -48 11 -98 0 -59 -12 -221 -94 -221 -111 0
-26 238 -119 303 -119 22 0 37 -3 34 -7 -6 -6 -226 -92 -236 -93 -2 0 4 10 15
21 19 21 19 22 -33 68 -124 111 -197 121 -347 47 -129 -64 -131 -68 -57 -106
90 -45 238 -92 264 -84 12 3 19 3 15 -1 -7 -7 -197 -85 -207 -85 -2 0 3 7 10
16 12 14 7 22 -36 60 -28 25 -78 58 -113 75 -59 30 -64 31 -118 21 -55 -12
-234 -98 -234 -114 0 -18 199 -104 285 -123 29 -7 29 -7 -28 -30 -83 -34 -101
-39 -93 -26 10 15 -97 81 -168 103 -55 17 -63 17 -110 3 -28 -8 -69 -27 -92
-42 -56 -39 -134 -104 -134 -113 0 -4 28 -15 63 -25 164 -47 252 -56 313 -30
20 8 40 13 44 10 7 -5 143 45 349 129 63 25 116 44 119 42 2 -3 -6 -9 -17 -16
-45 -24 -88 -149 -92 -270 -2 -43 1 -54 12 -52 25 6 134 70 197 116 88 65 133
163 116 252 -6 31 -9 35 -30 30 -13 -3 -36 -8 -51 -11 -24 -5 -25 -4 -8 4 39
19 572 224 785 301 767 278 1425 445 2260 574 340 52 392 57 488 43 78 -12
102 -27 42 -27 -41 0 -133 -51 -155 -87 -15 -24 -37 -38 -90 -57 -38 -14 -73
-26 -76 -26 -3 0 -1 24 4 54 5 29 7 66 3 81 -6 25 -10 27 -44 21 -70 -12 -164
-50 -199 -81 -25 -22 -40 -49 -57 -100 l-22 -69 -60 -18 c-77 -23 -79 -23 -57
10 33 48 43 82 43 147 0 61 -1 65 -23 65 -34 0 -125 -28 -179 -56 -57 -29 -90
-85 -108 -185 -7 -35 -14 -69 -15 -75 -2 -6 -34 -19 -72 -29 -37 -10 -74 -20
-82 -23 -8 -3 -1 12 16 34 37 45 56 111 51 174 -4 52 -7 53 -119 20 -117 -35
-167 -87 -189 -200 -24 -119 -16 -109 -115 -141 -49 -16 -91 -29 -93 -29 -2 0
8 15 22 33 40 52 56 101 56 172 l0 65 -27 -6 c-85 -18 -164 -47 -200 -73 -49
-35 -81 -109 -90 -207 l-6 -62 -136 -45 c-75 -25 -137 -44 -139 -43 -1 2 27
23 63 47 98 66 141 145 133 249 -3 43 -4 45 -33 42 -47 -5 -150 -41 -187 -65
-49 -33 -86 -114 -100 -226 l-13 -93 -195 -69 c-107 -38 -197 -69 -200 -69 -3
0 22 15 55 33 101 54 184 116 215 158 33 47 54 132 44 183 -6 32 -9 35 -33 30
-143 -31 -212 -67 -241 -124 -28 -56 -49 -143 -52 -222 -2 -38 -7 -68 -11 -68
-11 0 -500 -182 -711 -265 -163 -63 -606 -208 -614 -200 -2 2 7 9 20 16 56 30
126 92 148 131 17 31 25 62 28 121 l5 79 -34 -7 c-19 -3 -61 -15 -94 -26 -140
-45 -171 -89 -199 -283 l-11 -79 -85 -28 c-629 -204 -1020 -337 -1565 -529
-1210 -427 -1613 -553 -2255 -703 -648 -152 -1343 -248 -1698 -235 -85 3 -92
2 -92 -16 0 -18 9 -19 233 -13 493 13 1080 106 1775 282 586 149 931 258 1967
625 629 223 1907 650 1941 650 5 0 -47 -25 -116 -56 -69 -30 -280 -132 -470
-226 -612 -302 -1213 -556 -2535 -1073 -327 -128 -453 -177 -1050 -405 -126
-48 -502 -190 -835 -315 -333 -124 -606 -227 -607 -228 -1 -2 2 -8 6 -16 6 -9
49 2 187 52 98 36 249 85 335 111 151 45 584 156 604 156 8 -1 -876 -335
-1198 -453 -47 -17 -77 -34 -77 -43 0 -19 20 -18 72 4 52 23 403 142 415 142
15 -1 -72 -44 -177 -86 -59 -24 -105 -48 -105 -56 0 -7 5 -13 10 -13 18 1 127
36 298 97 270 95 503 173 787 263 378 118 708 241 1245 463 430 177 1060 452
1470 642 493 228 609 280 910 407 981 415 2468 964 3270 1209 448 136 1153
287 2076 444 163 27 304 50 312 50 13 0 15 -7 10 -32 -3 -18 -7 -34 -8 -36 -1
-1 -96 -18 -211 -38 -824 -139 -1582 -299 -1979 -419 -793 -239 -2250 -774
-3273 -1201 -328 -138 -462 -197 -777 -344 -890 -415 -1883 -836 -2500 -1060
-88 -32 -284 -97 -435 -144 -329 -102 -925 -307 -942 -324 -4 -4 -4 -13 0 -19
5 -9 57 6 182 53 158 58 484 166 1000 332 534 172 1644 636 2710 1132 536 249
1054 465 1840 767 1110 426 2006 732 2530 863 432 108 1333 286 1820 359 36 6
130 21 210 35 80 14 148 26 152 26 3 0 4 -18 1 -40 l-6 -41 54 21 c99 39 201
95 236 129 40 39 72 103 73 143 0 15 3 29 8 31 15 9 283 -82 368 -124 184 -91
441 -278 621 -453 l63 -60 29 28 29 28 -69 65 c-225 212 -509 411 -704 492
-39 17 -151 54 -248 83 -97 29 -177 56 -177 59 0 4 14 9 31 13 22 4 30 10 25
21 -3 9 0 15 9 15 24 0 17 28 -7 32 -14 2 -32 21 -51 53 -40 69 -85 113 -127
125 -40 11 -164 13 -234 4 -40 -6 -47 -10 -43 -25 6 -24 -27 -26 -45 -3 -90
112 -126 133 -231 134 -61 0 -187 -20 -187 -31 0 -4 12 -21 26 -38 l26 -31
-23 0 c-13 0 -45 22 -79 54 -47 45 -65 56 -105 62 -48 7 -171 1 -232 -12 l-33
-6 21 -29 20 -29 -23 0 c-15 0 -38 14 -59 36 -18 20 -48 43 -66 50 -39 17
-179 18 -243 2 -67 -16 -332 -17 -520 -1 -144 12 -999 34 -1180 31 -36 -1
-193 -5 -350 -9z m360 -35 c-8 -1 -103 -8 -210 -14 -222 -12 -777 -53 -1015
-75 -306 -27 -1011 -95 -1203 -116 -107 -11 -199 -18 -204 -17 -6 2 101 19
238 37 1019 134 1649 187 2214 188 107 1 188 -1 180 -3z m583 -31 c-78 -2
-208 -2 -290 0 -81 1 -17 3 142 3 160 0 226 -2 148 -3z m-30 -49 c-140 -17
-331 -48 -448 -74 -61 -13 -200 -26 -430 -40 -587 -36 -1184 -87 -2380 -205
-582 -57 -1018 -96 -1023 -90 -3 3 0 5 6 5 6 0 157 20 334 45 712 98 1122 151
1833 235 1124 132 1166 136 1865 137 345 1 352 0 243 -13z m660 -51 l61 -38
-37 -3 c-30 -3 -46 4 -80 29 -63 49 -63 49 -33 49 15 0 55 -17 89 -37z m497
17 c11 -7 4 -10 -27 -10 -23 0 -45 5 -48 10 -8 13 55 13 75 0z m-935 -22 c-22
-11 -47 -27 -56 -34 -14 -12 -23 -11 -65 7 -27 12 -44 24 -39 26 19 6 130 21
165 21 l35 1 -40 -21z m-2080 -4 c-60 -8 -299 -37 -530 -65 -470 -56 -1035
-129 -1470 -189 -282 -39 -409 -57 -835 -119 -209 -31 -700 -84 -707 -77 -5 5
21 8 692 96 292 38 820 107 1175 154 1068 142 1659 214 1745 214 22 0 -9 -7
-70 -14z m3070 -13 c-12 -11 -95 -19 -95 -9 0 4 17 9 38 11 20 2 44 4 52 5 8
1 10 -1 5 -7z m-1480 -11 c-11 -5 -29 -8 -40 -8 -16 0 -15 2 5 8 34 11 60 11
35 0z m2327 -43 c21 -17 38 -32 38 -33 0 -3 -39 2 -106 12 -27 4 -54 34 -54
60 0 16 89 -13 122 -39z m-449 18 c33 -7 62 -16 65 -19 3 -3 -25 -6 -61 -6
-37 0 -67 2 -67 4 0 2 -3 11 -6 20 -7 19 -5 19 69 1z m-321 -15 c18 -11 28
-20 22 -20 -6 0 -81 -7 -167 -16 -87 -8 -172 -14 -190 -12 -27 3 -22 6 38 22
39 10 111 24 160 31 50 7 93 13 97 14 4 0 22 -8 40 -19z m-512 0 c-8 -5 -37
-9 -65 -8 l-50 1 45 7 c73 11 88 11 70 0z m-1350 -36 c-200 -55 -376 -109
-670 -203 -151 -49 -300 -94 -330 -101 -61 -13 -846 -247 -1324 -394 -171 -53
-312 -94 -314 -92 -2 3 54 23 125 46 70 23 223 72 338 110 837 273 2183 669
2270 669 17 0 -26 -16 -95 -35z m380 32 c0 -2 -17 -14 -37 -26 l-36 -21 29
-20 c27 -17 27 -19 7 -19 -12 0 -43 11 -69 25 -29 16 -64 25 -93 26 l-46 1 70
18 c63 16 175 26 175 16z m425 -16 c3 -5 -3 -10 -14 -10 -11 0 -23 5 -26 10
-3 6 3 10 14 10 11 0 23 -4 26 -10z m2240 -41 l40 -39 -40 1 c-22 0 -62 6 -90
13 -47 11 -49 12 -27 24 18 11 20 16 11 33 -10 19 -8 20 28 13 25 -4 52 -20
78 -45z m-1582 24 c-7 -2 -21 -2 -30 0 -10 3 -4 5 12 5 17 0 24 -2 18 -5z
m-1398 -30 c-22 -9 -72 -36 -110 -59 l-71 -42 -51 17 -51 17 146 41 c157 44
202 52 137 26z m810 7 c-11 -5 -31 -9 -45 -9 -20 -1 -22 1 -10 9 8 5 29 9 45
9 26 0 27 -2 10 -9z m-3550 -5 c-5 -2 -86 -13 -180 -25 -93 -11 -371 -48 -617
-80 -607 -81 -620 -76 -38 14 319 50 894 112 835 91z m4815 -46 c-50 -19 -62
-19 -142 -8 -48 6 -85 16 -82 20 3 5 67 9 142 8 l137 0 -55 -20z m375 11 c217
-19 218 -21 25 -45 -117 -15 -177 -19 -181 -12 -5 6 -34 8 -80 3 -41 -3 -87
-2 -104 2 -29 8 -27 10 45 34 84 30 134 33 295 18z m-2080 -20 c4 -6 -9 -10
-32 -9 -34 1 -35 2 -13 9 35 11 38 11 45 0z m-4178 -36 c-3 -3 -12 -4 -19 -1
-8 3 -5 6 6 6 11 1 17 -2 13 -5z m6783 -29 c80 -18 174 -43 210 -53 l65 -19
-40 -12 c-22 -6 -70 -11 -107 -11 -66 0 -68 1 -68 25 0 14 -6 25 -12 25 -41 0
-150 -23 -194 -41 -35 -14 -68 -19 -105 -17 l-54 3 98 24 c101 24 111 29 99
48 -7 11 -82 -4 -174 -33 -14 -4 -15 1 -11 36 7 47 3 48 -106 29 -93 -17 -144
-41 -177 -86 -15 -21 -31 -42 -36 -47 -4 -5 -30 -12 -58 -16 -44 -6 -50 -4
-44 9 19 45 33 88 34 102 0 13 25 20 133 34 322 43 368 43 547 0z m-906 6 c17
-6 14 -10 -20 -23 -21 -9 -59 -19 -82 -23 -39 -6 -43 -5 -40 11 6 30 96 53
142 35z m-2524 -16 c0 -14 -156 -63 -167 -51 -2 2 31 15 74 29 86 27 93 29 93
22z m360 1 c0 -9 -40 -13 -46 -5 -3 5 6 9 20 9 14 0 26 -2 26 -4z m2100 -62
c0 -5 -47 -26 -87 -38 -18 -6 -22 -4 -17 8 3 8 25 19 47 25 55 12 57 12 57 5z
m-2545 -24 c-3 -5 -23 -10 -43 -9 -30 0 -33 2 -17 9 28 12 67 12 60 0z m2503
-71 c-13 -31 -18 -33 -101 -49 -48 -9 -87 -16 -87 -15 0 15 188 110 198 100 2
-1 -3 -18 -10 -36z m1130 34 c-17 -37 -46 -74 -61 -79 -26 -8 -27 -4 -14 44
10 39 14 42 45 42 18 0 32 -3 30 -7z m-373 -67 l-30 -65 -90 -16 c-49 -8 -103
-18 -120 -21 -20 -4 -2 11 58 45 48 28 95 51 105 51 34 0 62 13 62 27 0 11 -8
14 -30 11 -20 -3 -30 0 -30 8 0 11 23 18 85 22 20 2 19 -1 -10 -62z m-3625 35
c-20 -12 -133 -41 -138 -36 -5 5 117 44 138 44 13 0 13 -1 0 -8z m2487 -29
l-10 -38 -166 -59 c-91 -32 -173 -60 -181 -63 -8 -2 11 12 43 32 81 49 155
104 159 118 2 6 35 19 74 29 97 24 93 25 81 -19z m761 -9 c-3 -14 -27 -22
-118 -39 -63 -12 -117 -21 -118 -19 -8 8 49 30 128 51 106 28 112 28 108 7z
m-402 -40 c-8 -8 -1049 -273 -1054 -268 -8 8 377 130 503 159 406 94 568 126
551 109z m1080 -40 c-12 -36 -14 -37 -87 -49 -40 -7 -75 -11 -77 -9 -2 2 13
13 35 23 21 11 47 29 58 40 23 21 42 30 67 31 15 1 16 -3 4 -36z m-1866 -46
l0 -43 -132 -38 c-185 -52 -605 -179 -978 -297 -172 -55 -318 -98 -322 -97 -9
3 100 43 832 304 300 107 554 199 565 204 33 14 35 12 35 -33z m1170 37 c0
-25 -25 -42 -72 -48 -170 -23 -907 -165 -1278 -247 -383 -84 -580 -139 -993
-275 -126 -42 -231 -73 -234 -71 -8 9 704 236 1056 337 273 78 572 142 1166
249 121 21 243 44 270 49 62 12 85 14 85 6z m-3861 -38 c-11 -12 -320 -115
-574 -192 -820 -250 -1025 -313 -1290 -395 -159 -50 -346 -108 -414 -130 -141
-46 -177 -46 -44 -1 48 16 133 46 188 65 135 48 743 236 1590 492 176 53 367
112 425 130 103 33 128 39 119 31z m2260 -71 c-4 -4 -186 -68 -254 -90 -11 -3
-6 2 10 12 46 27 263 97 244 78z m-381 -126 c-2 -6 -26 -20 -53 -30 -28 -10
-253 -92 -502 -183 -266 -97 -521 -183 -623 -211 -94 -25 -242 -66 -327 -90
-86 -25 -158 -44 -159 -42 -8 7 618 230 1030 367 143 47 190 59 196 50 6 -10
22 -5 66 20 52 29 328 127 362 129 8 1 12 -4 10 -10z m210 -64 c-7 -7 -140
-45 -153 -44 -12 1 124 47 144 48 8 1 12 -1 9 -4z m-3008 -80 c-29 -12 -953
-361 -1340 -507 -619 -233 -1163 -408 -1795 -576 -320 -86 -676 -174 -682
-169 -2 2 54 24 124 50 71 25 274 97 453 162 612 219 1233 427 1830 613 534
167 950 295 1151 356 119 36 227 70 240 75 13 5 31 10 39 10 8 0 -1 -6 -20
-14z m2260 -191 c-279 -102 -517 -184 -1125 -389 -327 -110 -780 -288 -1284
-505 -117 -50 -215 -90 -217 -87 -5 4 315 155 541 254 461 203 1137 456 1850
693 182 61 488 146 530 148 11 1 -122 -50 -295 -114z m-221 -128 c-8 -8 -433
-156 -436 -152 -4 4 155 63 322 120 97 33 123 41 114 32z m-654 -66 c-11 -5
-162 -64 -335 -130 -547 -211 -1071 -431 -2345 -985 -1968 -856 -2531 -1083
-2915 -1175 -74 -17 -175 -42 -225 -55 -49 -13 -91 -22 -93 -21 -1 2 91 38
205 81 680 254 1606 613 2313 897 869 348 1186 486 1730 753 624 306 856 404
1175 499 500 148 548 161 490 136z m-4435 -551 c-270 -96 -794 -286 -940 -341
-98 -37 -250 -81 -257 -74 -5 5 453 176 835 312 176 63 549 182 572 182 8 1
-86 -35 -210 -79z m-835 -239 c-11 -5 -155 -59 -320 -120 -248 -93 -326 -117
-450 -142 -225 -44 -519 -98 -522 -95 -1 2 100 31 225 65 369 100 644 178 857
241 187 55 258 72 210 51z m3424 -4 c-20 -21 -431 -213 -734 -343 -368 -159
-1045 -436 -1051 -430 -2 2 43 22 99 46 182 77 1621 703 1647 717 24 13 48 19
39 10z m-1904 -866 c-3 -5 -12 -10 -18 -10 -7 0 -6 4 3 10 19 12 23 12 15 0z
m-45 -19 c-47 -27 -645 -275 -750 -311 -69 -23 -228 -80 -354 -126 -126 -46
-231 -82 -233 -80 -2 1 113 47 254 101 275 105 985 382 1043 408 38 17 64 22
40 8z m-731 -345 c-7 -7 -393 -165 -589 -241 -228 -88 -629 -221 -610 -201 5
5 325 127 555 212 66 24 235 86 375 138 240 89 280 102 269 92z m-659 -196
c-8 -5 -19 -10 -25 -10 -5 0 -3 5 5 10 8 5 20 10 25 10 6 0 3 -5 -5 -10z"/>
<path d="M7250 4327 c-89 -30 -128 -60 -156 -121 -23 -51 -54 -239 -42 -252 9
-9 134 61 211 117 80 58 110 113 115 212 l4 67 -33 -1 c-19 0 -63 -10 -99 -22z"/>
<path d="M6903 4206 c-94 -31 -131 -58 -159 -120 -31 -70 -59 -256 -38 -256
16 0 146 76 205 119 81 60 110 112 117 212 l5 69 -29 0 c-16 -1 -61 -11 -101
-24z"/>
</g>
</svg>
