<?xml version="1.0" encoding="iso-8859-1"?>
<!-- Generator: Adobe Illustrator 16.0.0, SVG Export Plug-In . SVG Version: 6.00 Build 0)  -->
<!DOCTYPE svg PUBLIC "-//W3C//DTD SVG 1.1//EN" "http://www.w3.org/Graphics/SVG/1.1/DTD/svg11.dtd">
<svg version="1.1" id="Capa_1" xmlns="http://www.w3.org/2000/svg" xmlns:xlink="http://www.w3.org/1999/xlink" x="0px" y="0px"
	 width="79.539px" height="79.539px" viewBox="0 0 79.539 79.539" style="enable-background:new 0 0 79.539 79.539;"
	 xml:space="preserve">
<g>
	<path style="fill:#010002;" d="M12.924,77.258l-1.082-10.864c0-0.999,1.273-0.113,2.879-0.113l0,0c1.598,0,2.884-0.886,2.884,0.113
		l0,0l-0.901,10.595C16.704,79.308,12.924,78.366,12.924,77.258z M8.295,41.878C0.377,38.3,1.02,32.669,1.02,32.669
		c-0.997,1.988,1.124,19.33,9.38,19.33C14.089,52.009,17.19,45.878,8.295,41.878z M8.295,29.624
		c-7.917-3.567-7.275-9.199-7.275-9.199c-0.997,1.983,1.124,19.333,9.38,19.333C14.089,39.758,17.19,33.632,8.295,29.624z
		 M8.295,17.735C0.377,14.183,1.02,8.536,1.02,8.536c-0.997,1.988,1.124,19.327,9.38,19.327
		C14.089,27.863,17.19,21.756,8.295,17.735z M19.27,52.009c8.251,0,10.367-17.347,9.38-19.335c0,0,0.642,5.631-7.286,9.209
		C12.479,45.878,15.57,52.009,19.27,52.009z M8.295,54.433c-7.917-3.578-7.275-9.207-7.275-9.207
		c-0.997,1.988,1.124,19.33,9.38,19.33C14.089,64.556,17.19,58.43,8.295,54.433z M19.27,64.556c8.251,0,10.367-17.342,9.38-19.33
		c0,0,0.642,5.629-7.286,9.207C12.479,58.43,15.57,64.556,19.27,64.556z M19.27,39.758c8.251,0,10.367-17.35,9.38-19.333
		c0,0,0.642,5.632-7.286,9.199C12.479,33.632,15.57,39.758,19.27,39.758z M19.27,27.863c8.251,0,10.367-17.339,9.38-19.327
		c0,0,0.642,5.642-7.286,9.194C12.479,21.756,15.57,27.863,19.27,27.863z M15.409,18.665C24.166,18.665,14.928,0,14.928,0
		C13.814,1.755,6.656,18.665,15.409,18.665z M39.076,78.718l5.279-9.238l0,0c0.419-0.891-1.119-0.652-2.561-1.314l0,0
		c-1.463-0.674-2.247-2.02-2.662-1.108l-3.601,10.3C35.065,78.366,38.095,80.81,39.076,78.718z M46.237,43.325
		c-5.662-6.579-2.713-11.415-2.713-11.415c-1.745,1.377-7.118,18.013,0.354,21.486C47.229,54.955,52.63,50.704,46.237,43.325z
		 M51.402,32.203c-5.662-6.566-2.713-11.402-2.713-11.402c-1.745,1.38-7.128,18.007,0.352,21.491
		C52.396,43.849,57.787,39.607,51.402,32.203z M56.415,21.433c-5.686-6.553-2.713-11.41-2.713-11.41
		c-1.751,1.377-7.131,18.001,0.352,21.484C57.404,33.055,62.794,28.829,56.415,21.433z M51.941,57.146
		c7.482,3.459,16.704-11.365,16.642-13.592c0,0-1.786,5.38-10.48,5.281C48.351,48.726,48.586,55.571,51.941,57.146z M40.958,54.702
		C35.283,48.131,38.232,43.3,38.232,43.3c-1.74,1.377-7.115,18.01,0.36,21.469C41.955,66.327,47.335,62.091,40.958,54.702z
		 M46.646,68.517c7.479,3.48,16.707-11.36,16.65-13.587c0,0-1.792,5.385-10.48,5.281C43.063,60.112,43.296,66.964,46.646,68.517z
		 M57.099,46.033c7.482,3.47,16.71-11.376,16.643-13.587c0,0-1.787,5.375-10.476,5.281C53.51,37.619,53.743,44.479,57.099,46.033z
		 M62.11,35.24c7.482,3.482,16.7-11.353,16.638-13.58c0,0-1.797,5.398-10.476,5.282C58.522,26.841,58.761,33.691,62.11,35.24z
		 M62.474,25.267c7.938,3.685,7.425-17.126,7.425-17.126C68.153,9.274,54.546,21.575,62.474,25.267z"/>
</g>
<g>
</g>
<g>
</g>
<g>
</g>
<g>
</g>
<g>
</g>
<g>
</g>
<g>
</g>
<g>
</g>
<g>
</g>
<g>
</g>
<g>
</g>
<g>
</g>
<g>
</g>
<g>
</g>
<g>
</g>
</svg>
